<svg xmlns="http://www.w3.org/2000/svg" width="1440" height="900"><path d="M770,503L690,667L843,605Z" fill="#34a4c2" stroke="#34a4c2" stroke-width="1.51"/><path d="M770,503L566,568L690,667Z" fill="#40abc2" stroke="#40abc2" stroke-width="1.51"/><path d="M1061,362L858,299L770,503Z" fill="#47adc1" stroke="#47adc1" stroke-width="1.51"/><path d="M779,851L958,696L843,605Z" fill="#2c8ebc" stroke="#2c8ebc" stroke-width="1.51"/><path d="M690,667L779,851L843,605Z" fill="#3296bd" stroke="#3296bd" stroke-width="1.51"/><path d="M502,858L779,851L690,667Z" fill="#4290b7" stroke="#4290b7" stroke-width="1.51"/><path d="M770,503L565,347L566,568Z" fill="#4db7c3" stroke="#4db7c3" stroke-width="1.51"/><path d="M858,299L695,320L770,503Z" fill="#4fb6c2" stroke="#4fb6c2" stroke-width="1.51"/><path d="M695,320L565,347L770,503Z" fill="#54bbc2" stroke="#54bbc2" stroke-width="1.51"/><path d="M566,568L471,739L690,667Z" fill="#4ca6be" stroke="#4ca6be" stroke-width="1.51"/><path d="M350,688L471,739L566,568Z" fill="#5baabc" stroke="#5baabc" stroke-width="1.51"/><path d="M1061,362L770,503L843,605Z" fill="#34a5c2" stroke="#34a5c2" stroke-width="1.51"/><path d="M958,696L1084,598L843,605Z" fill="#1f92c0" stroke="#1f92c0" stroke-width="1.51"/><path d="M1138,693L1084,598L958,696Z" fill="#2185bb" stroke="#2185bb" stroke-width="1.51"/><path d="M471,739L502,858L690,667Z" fill="#5099b8" stroke="#5099b8" stroke-width="1.51"/><path d="M1084,598L1061,362L843,605Z" fill="#2c9ac1" stroke="#2c9ac1" stroke-width="1.51"/><path d="M779,851L1046,854L958,696Z" fill="#287eb6" stroke="#287eb6" stroke-width="1.51"/><path d="M883,975L1046,854L779,851Z" fill="#2e74b1" stroke="#2e74b1" stroke-width="1.51"/><path d="M1084,598L1223,591L1061,362Z" fill="#308dbb" stroke="#308dbb" stroke-width="1.51"/><path d="M1046,854L1138,693L958,696Z" fill="#237ab6" stroke="#237ab6" stroke-width="1.51"/><path d="M565,347L397,404L566,568Z" fill="#61c0c1" stroke="#61c0c1" stroke-width="1.51"/><path d="M774,1055L883,975L779,851Z" fill="#3773ae" stroke="#3773ae" stroke-width="1.51"/><path d="M471,739L339,857L502,858Z" fill="#6095b2" stroke="#6095b2" stroke-width="1.51"/><path d="M283,516L350,688L566,568Z" fill="#69b6be" stroke="#69b6be" stroke-width="1.51"/><path d="M1061,362L938,215L858,299Z" fill="#57aebe" stroke="#57aebe" stroke-width="1.51"/><path d="M858,299L780,153L695,320Z" fill="#64bebf" stroke="#64bebf" stroke-width="1.51"/><path d="M695,320L478,144L565,347Z" fill="#72c7bd" stroke="#72c7bd" stroke-width="1.51"/><path d="M565,347L478,144L397,404Z" fill="#79cabd" stroke="#79cabd" stroke-width="1.51"/><path d="M938,215L780,153L858,299Z" fill="#6ababe" stroke="#6ababe" stroke-width="1.51"/><path d="M502,858L774,1055L779,851Z" fill="#417fb0" stroke="#417fb0" stroke-width="1.51"/><path d="M1138,693L1223,591L1084,598Z" fill="#2380b8" stroke="#2380b8" stroke-width="1.51"/><path d="M1276,665L1223,591L1138,693Z" fill="#2477b4" stroke="#2477b4" stroke-width="1.51"/><path d="M397,404L283,516L566,568Z" fill="#6bbfbf" stroke="#6bbfbf" stroke-width="1.51"/><path d="M350,688L339,857L471,739Z" fill="#69a0b6" stroke="#69a0b6" stroke-width="1.51"/><path d="M502,858L573,1143L774,1055Z" fill="#4b77a9" stroke="#4b77a9" stroke-width="1.51"/><path d="M167,730L339,857L350,688Z" fill="#79a6b4" stroke="#79a6b4" stroke-width="1.51"/><path d="M774,1055L877,1100L883,975Z" fill="#3368a5" stroke="#3368a5" stroke-width="1.51"/><path d="M883,975L1038,1102L1046,854Z" fill="#2b64ab" stroke="#2b64ab" stroke-width="1.51"/><path d="M780,153L478,144L695,320Z" fill="#7ac9be" stroke="#7ac9be" stroke-width="1.51"/><path d="M397,404L186,414L283,516Z" fill="#84cbbd" stroke="#84cbbd" stroke-width="1.51"/><path d="M1228,935L1138,693L1046,854Z" fill="#2366ac" stroke="#2366ac" stroke-width="1.51"/><path d="M1228,935L1276,665L1138,693Z" fill="#2367ad" stroke="#2367ad" stroke-width="1.51"/><path d="M1223,591L1232,315L1061,362Z" fill="#3d91b9" stroke="#3d91b9" stroke-width="1.51"/><path d="M186,414L195,600L283,516Z" fill="#8bc8bc" stroke="#8bc8bc" stroke-width="1.51"/><path d="M283,516L195,600L350,688Z" fill="#7ebcbc" stroke="#7ebcbc" stroke-width="1.51"/><path d="M1320,227L1232,315L1405,380Z" fill="#558ab0" stroke="#558ab0" stroke-width="1.51"/><path d="M1061,362L1113,129L938,215Z" fill="#63a9bb" stroke="#63a9bb" stroke-width="1.51"/><path d="M938,215L900,-3L780,153Z" fill="#81c0bd" stroke="#81c0bd" stroke-width="1.51"/><path d="M478,144L371,161L397,404Z" fill="#8dd2ba" stroke="#8dd2ba" stroke-width="1.51"/><path d="M287,1152L573,1143L502,858Z" fill="#5b7aa1" stroke="#5b7aa1" stroke-width="1.51"/><path d="M774,1055L573,1143L877,1100Z" fill="#356b9d" stroke="#356b9d" stroke-width="1.51"/><path d="M877,1100L1038,1102L883,975Z" fill="#2b61a2" stroke="#2b61a2" stroke-width="1.51"/><path d="M573,1143L1038,1102L877,1100Z" fill="#2e6499" stroke="#2e6499" stroke-width="1.51"/><path d="M1038,1102L1228,935L1046,854Z" fill="#295aa7" stroke="#295aa7" stroke-width="1.51"/><path d="M1232,315L1113,129L1061,362Z" fill="#5a9db7" stroke="#5a9db7" stroke-width="1.51"/><path d="M780,153L699,1L478,144Z" fill="#92d1bc" stroke="#92d1bc" stroke-width="1.51"/><path d="M371,161L186,414L397,404Z" fill="#8ed1bb" stroke="#8ed1bb" stroke-width="1.51"/><path d="M900,-3L699,1L780,153Z" fill="#91cabc" stroke="#91cabc" stroke-width="1.51"/><path d="M478,144L475,-22L371,161Z" fill="#a5dbb8" stroke="#a5dbb8" stroke-width="1.51"/><path d="M339,857L287,1152L502,858Z" fill="#6b88ab" stroke="#6b88ab" stroke-width="1.51"/><path d="M195,600L167,730L350,688Z" fill="#82b5b9" stroke="#82b5b9" stroke-width="1.51"/><path d="M-57,551L167,730L195,600Z" fill="#91c0bb" stroke="#91c0bb" stroke-width="1.51"/><path d="M1037,11L900,-3L938,215Z" fill="#88bdbb" stroke="#88bdbb" stroke-width="1.51"/><path d="M1113,129L1037,11L938,215Z" fill="#7eb3ba" stroke="#7eb3ba" stroke-width="1.51"/><path d="M167,730L175,937L339,857Z" fill="#819db0" stroke="#819db0" stroke-width="1.51"/><path d="M371,161L112,181L186,414Z" fill="#a5dbb8" stroke="#a5dbb8" stroke-width="1.51"/><path d="M699,1L475,-22L478,144Z" fill="#a3d8b9" stroke="#a3d8b9" stroke-width="1.51"/><path d="M595,-168L475,-22L699,1Z" fill="#abdbba" stroke="#abdbba" stroke-width="1.51"/><path d="M1232,315L1320,227L1113,129Z" fill="#6497b3" stroke="#6497b3" stroke-width="1.51"/><path d="M1113,129L1236,-16L1037,11Z" fill="#8aacb4" stroke="#8aacb4" stroke-width="1.51"/><path d="M1405,380L1232,315L1223,591Z" fill="#3f86b4" stroke="#3f86b4" stroke-width="1.51"/><path d="M1276,665L1498,560L1223,591Z" fill="#2c72b1" stroke="#2c72b1" stroke-width="1.51"/><path d="M1454,863L1427,683L1276,665Z" fill="#275da8" stroke="#275da8" stroke-width="1.51"/><path d="M1498,560L1405,380L1223,591Z" fill="#3777b0" stroke="#3777b0" stroke-width="1.51"/><path d="M175,937L199,1055L339,857Z" fill="#808faa" stroke="#808faa" stroke-width="1.51"/><path d="M199,1055L287,1152L339,857Z" fill="#7985a5" stroke="#7985a5" stroke-width="1.51"/><path d="M1228,935L1454,863L1276,665Z" fill="#2457a5" stroke="#2457a5" stroke-width="1.51"/><path d="M1038,1102L1271,1127L1228,935Z" fill="#244b98" stroke="#244b98" stroke-width="1.51"/><path d="M573,1143L1271,1127L1038,1102Z" fill="#235a96" stroke="#235a96" stroke-width="1.51"/><path d="M1420,1142L1271,1127L573,1143Z" fill="#1e4e8e" stroke="#1e4e8e" stroke-width="1.51"/><path d="M1652,502L1498,560L1710,687Z" fill="#29609a" stroke="#29609a" stroke-width="1.51"/><path d="M1427,683L1498,560L1276,665Z" fill="#2a69ae" stroke="#2a69ae" stroke-width="1.51"/><path d="M1420,1142L1454,863L1228,935Z" fill="#26419a" stroke="#26419a" stroke-width="1.51"/><path d="M475,-22L349,-48L371,161Z" fill="#b4e0b6" stroke="#b4e0b6" stroke-width="1.51"/><path d="M412,-147L349,-48L475,-22Z" fill="#bde4b6" stroke="#bde4b6" stroke-width="1.51"/><path d="M186,414L-57,551L195,600Z" fill="#95cbbc" stroke="#95cbbc" stroke-width="1.51"/><path d="M167,730L-22,897L175,937Z" fill="#8c9fae" stroke="#8c9fae" stroke-width="1.51"/><path d="M103,24L112,181L371,161Z" fill="#c0e6b5" stroke="#c0e6b5" stroke-width="1.51"/><path d="M900,-3L767,-182L699,1Z" fill="#9ecfbc" stroke="#9ecfbc" stroke-width="1.51"/><path d="M846,-247L767,-182L900,-3Z" fill="#a3cebf" stroke="#a3cebf" stroke-width="1.51"/><path d="M767,-182L595,-168L699,1Z" fill="#a9d8bc" stroke="#a9d8bc" stroke-width="1.51"/><path d="M1129,-211L846,-247L900,-3Z" fill="#9fc5bf" stroke="#9fc5bf" stroke-width="1.51"/><path d="M1320,227L1236,-16L1113,129Z" fill="#7d9fb1" stroke="#7d9fb1" stroke-width="1.51"/><path d="M1398,111L1236,-16L1320,227Z" fill="#7e97ad" stroke="#7e97ad" stroke-width="1.51"/><path d="M1398,111L1320,227L1595,212Z" fill="#6f87aa" stroke="#6f87aa" stroke-width="1.51"/><path d="M-7,302L-57,551L186,414Z" fill="#a1d6bb" stroke="#a1d6bb" stroke-width="1.51"/><path d="M175,937L-24,1063L199,1055Z" fill="#898ba4" stroke="#898ba4" stroke-width="1.51"/><path d="M1595,212L1320,227L1405,380Z" fill="#5c81ab" stroke="#5c81ab" stroke-width="1.51"/><path d="M112,181L-7,302L186,414Z" fill="#abdcb8" stroke="#abdcb8" stroke-width="1.51"/><path d="M349,-48L103,24L371,161Z" fill="#c2e7b5" stroke="#c2e7b5" stroke-width="1.51"/><path d="M112,181L-24,134L-7,302Z" fill="#bee5b6" stroke="#bee5b6" stroke-width="1.51"/><path d="M595,-168L412,-147L475,-22Z" fill="#b8e1b8" stroke="#b8e1b8" stroke-width="1.51"/><path d="M-75,739L-22,897L167,730Z" fill="#94aab1" stroke="#94aab1" stroke-width="1.51"/><path d="M199,1055L-24,1063L287,1152Z" fill="#7f8598" stroke="#7f8598" stroke-width="1.51"/><path d="M-57,551L-75,739L167,730Z" fill="#97bcb8" stroke="#97bcb8" stroke-width="1.51"/><path d="M595,-168L209,-244L412,-147Z" fill="#c5e7be" stroke="#c5e7be" stroke-width="1.51"/><path d="M767,-182L846,-247L595,-168Z" fill="#a9d7c5" stroke="#a9d7c5" stroke-width="1.51"/><path d="M1129,-211L900,-3L1037,11Z" fill="#98bdb9" stroke="#98bdb9" stroke-width="1.51"/><path d="M209,-244L103,24L349,-48Z" fill="#d7efb3" stroke="#d7efb3" stroke-width="1.51"/><path d="M1271,1127L1420,1142L1228,935Z" fill="#213f91" stroke="#213f91" stroke-width="1.51"/><path d="M1710,687L1498,560L1427,683Z" fill="#285ea2" stroke="#285ea2" stroke-width="1.51"/><path d="M287,1152L1420,1142L573,1143Z" fill="#306694" stroke="#306694" stroke-width="1.51"/><path d="M1236,-16L1129,-211L1037,11Z" fill="#96b0b4" stroke="#96b0b4" stroke-width="1.51"/><path d="M1225,-211L1129,-211L1236,-16Z" fill="#9aabb4" stroke="#9aabb4" stroke-width="1.51"/><path d="M-57,551L-254,714L-75,739Z" fill="#9ebfbf" stroke="#9ebfbf" stroke-width="1.51"/><path d="M-7,302L-146,483L-57,551Z" fill="#a7d8bd" stroke="#a7d8bd" stroke-width="1.51"/><path d="M-5,49L-24,134L112,181Z" fill="#cdebb4" stroke="#cdebb4" stroke-width="1.51"/><path d="M-242,312L-146,483L-7,302Z" fill="#b2ddc0" stroke="#b2ddc0" stroke-width="1.51"/><path d="M-195,932L-24,1063L-22,897Z" fill="#9896ab" stroke="#9896ab" stroke-width="1.51"/><path d="M-22,897L-24,1063L175,937Z" fill="#9193a8" stroke="#9193a8" stroke-width="1.51"/><path d="M-195,932L-22,897L-75,739Z" fill="#9aa3b1" stroke="#9aa3b1" stroke-width="1.51"/><path d="M1498,560L1652,502L1405,380Z" fill="#3a6fa8" stroke="#3a6fa8" stroke-width="1.51"/><path d="M1710,687L1427,683L1454,863Z" fill="#26519d" stroke="#26519d" stroke-width="1.51"/><path d="M1680,374L1595,212L1405,380Z" fill="#5076a1" stroke="#5076a1" stroke-width="1.51"/><path d="M1411,-162L1225,-211L1236,-16Z" fill="#99a2af" stroke="#99a2af" stroke-width="1.51"/><path d="M103,24L-5,49L112,181Z" fill="#d1ecb3" stroke="#d1ecb3" stroke-width="1.51"/><path d="M-210,169L-242,312L-7,302Z" fill="#bee4bf" stroke="#bee4bf" stroke-width="1.51"/><path d="M-49,-174L-5,49L103,24Z" fill="#e1f3b2" stroke="#e1f3b2" stroke-width="1.51"/><path d="M1411,-162L1236,-16L1398,111Z" fill="#8f99ab" stroke="#8f99ab" stroke-width="1.51"/><path d="M1129,-211L1225,-211L846,-247Z" fill="#9fbbc2" stroke="#9fbbc2" stroke-width="1.51"/><path d="M1595,212L1507,26L1398,111Z" fill="#7b86a6" stroke="#7b86a6" stroke-width="1.51"/><path d="M1595,212L1666,-9L1507,26Z" fill="#7b849a" stroke="#7b849a" stroke-width="1.51"/><path d="M1652,502L1680,374L1405,380Z" fill="#3f70a1" stroke="#3f70a1" stroke-width="1.51"/><path d="M1713,859L1710,687L1454,863Z" fill="#1e448e" stroke="#1e448e" stroke-width="1.51"/><path d="M1652,502L1859,372L1680,374Z" fill="#35688e" stroke="#35688e" stroke-width="1.51"/><path d="M412,-147L209,-244L349,-48Z" fill="#ceeab8" stroke="#ceeab8" stroke-width="1.51"/><path d="M846,-247L209,-244L595,-168Z" fill="#b8e0c4" stroke="#b8e0c4" stroke-width="1.51"/><path d="M1658,1057L1713,859L1454,863Z" fill="#1f388a" stroke="#1f388a" stroke-width="1.51"/><path d="M-254,714L-195,932L-75,739Z" fill="#9cadba" stroke="#9cadba" stroke-width="1.51"/><path d="M1507,26L1411,-162L1398,111Z" fill="#8d91a8" stroke="#8d91a8" stroke-width="1.51"/><path d="M-242,312L-254,714L-146,483Z" fill="#a8d3c8" stroke="#a8d3c8" stroke-width="1.51"/><path d="M-146,483L-254,714L-57,551Z" fill="#a2cac3" stroke="#a2cac3" stroke-width="1.51"/><path d="M1420,1142L1658,1057L1454,863Z" fill="#23328f" stroke="#23328f" stroke-width="1.51"/><path d="M-210,169L-7,302L-24,134Z" fill="#c6e7b8" stroke="#c6e7b8" stroke-width="1.51"/><path d="M-210,169L-24,134L-169,-37Z" fill="#dbf1b9" stroke="#dbf1b9" stroke-width="1.51"/><path d="M1826,967L1773,794L1713,859Z" fill="#17377c" stroke="#17377c" stroke-width="1.51"/><path d="M1713,859L1773,794L1710,687Z" fill="#184282" stroke="#184282" stroke-width="1.51"/><path d="M1710,687L1829,579L1652,502Z" fill="#21598d" stroke="#21598d" stroke-width="1.51"/><path d="M-254,714L-199,1041L-195,932Z" fill="#9ca0b8" stroke="#9ca0b8" stroke-width="1.51"/><path d="M-195,932L-199,1041L-24,1063Z" fill="#9991ac" stroke="#9991ac" stroke-width="1.51"/><path d="M-24,1063L-199,1041L287,1152Z" fill="#898899" stroke="#898899" stroke-width="1.51"/><path d="M-169,-37L-24,134L-5,49Z" fill="#def2b4" stroke="#def2b4" stroke-width="1.51"/><path d="M1773,794L1829,579L1710,687Z" fill="#1a4e87" stroke="#1a4e87" stroke-width="1.51"/><path d="M1793,132L1666,-9L1595,212Z" fill="#6e7c8e" stroke="#6e7c8e" stroke-width="1.51"/><path d="M1507,26L1666,-9L1411,-162Z" fill="#8e8ba1" stroke="#8e8ba1" stroke-width="1.51"/><path d="M1793,132L1595,212L1680,374Z" fill="#55748f" stroke="#55748f" stroke-width="1.51"/><path d="M209,-244L-49,-174L103,24Z" fill="#e4f5b5" stroke="#e4f5b5" stroke-width="1.51"/><path d="M-49,-174L-169,-37L-5,49Z" fill="#e9f7b3" stroke="#e9f7b3" stroke-width="1.51"/><path d="M-210,169L-263,-165L-242,312Z" fill="#dcf1c2" stroke="#dcf1c2" stroke-width="1.51"/><path d="M1829,579L1859,372L1652,502Z" fill="#2a628c" stroke="#2a628c" stroke-width="1.51"/><path d="M1773,794L1826,967L1829,579Z" fill="#184281" stroke="#184281" stroke-width="1.51"/><path d="M1829,579L1851,1048L1859,372Z" fill="#1a5089" stroke="#1a5089" stroke-width="1.51"/><path d="M1658,1057L1826,967L1713,859Z" fill="#182e79" stroke="#182e79" stroke-width="1.51"/><path d="M1859,372L1793,132L1680,374Z" fill="#486d89" stroke="#486d89" stroke-width="1.51"/><path d="M1658,1057L1851,1048L1826,967Z" fill="#152772" stroke="#152772" stroke-width="1.51"/><path d="M1826,967L1851,1048L1829,579Z" fill="#17387d" stroke="#17387d" stroke-width="1.51"/><path d="M1420,1142L1851,1048L1658,1057Z" fill="#162875" stroke="#162875" stroke-width="1.51"/><path d="M1816,-146L1693,-202L1666,-9Z" fill="#85828a" stroke="#85828a" stroke-width="1.51"/><path d="M1666,-9L1693,-202L1411,-162Z" fill="#8f8a9b" stroke="#8f8a9b" stroke-width="1.51"/><path d="M1411,-162L1693,-202L1225,-211Z" fill="#9a95b0" stroke="#9a95b0" stroke-width="1.51"/><path d="M1225,-211L1693,-202L846,-247Z" fill="#9ca7ba" stroke="#9ca7ba" stroke-width="1.51"/><path d="M1793,132L1867,49L1666,-9Z" fill="#727c87" stroke="#727c87" stroke-width="1.51"/><path d="M1859,372L1867,49L1793,132Z" fill="#5d7488" stroke="#5d7488" stroke-width="1.51"/><path d="M1851,1048L1867,49L1859,372Z" fill="#2a628c" stroke="#2a628c" stroke-width="1.51"/><path d="M-49,-174L-263,-165L-169,-37Z" fill="#f2fabc" stroke="#f2fabc" stroke-width="1.51"/><path d="M-169,-37L-263,-165L-210,169Z" fill="#eaf7bf" stroke="#eaf7bf" stroke-width="1.51"/><path d="M-242,312L-263,-165L-254,714Z" fill="#bee4c7" stroke="#bee4c7" stroke-width="1.51"/><path d="M209,-244L-263,-165L-49,-174Z" fill="#f1f9bb" stroke="#f1f9bb" stroke-width="1.51"/><path d="M1867,49L1816,-146L1666,-9Z" fill="#7c7f86" stroke="#7c7f86" stroke-width="1.51"/></svg>